<svg width="250" height="48" viewBox="0 0 250 48" fill="none" xmlns="http://www.w3.org/2000/svg">
<g filter="url(#filter0_n_580_61)">
<g clip-path="url(#clip0_580_61)">
<rect width="250" height="48" rx="24" fill="url(#paint0_linear_580_61)"/>
<path d="M67.9941 29.605C67.2941 29.605 66.6641 29.485 66.1041 29.245C65.5441 28.995 65.1041 28.645 64.7841 28.195C64.4641 27.745 64.3041 27.22 64.3041 26.62H66.1341C66.1741 27.07 66.3491 27.44 66.6591 27.73C66.9791 28.02 67.4241 28.165 67.9941 28.165C68.5841 28.165 69.0441 28.025 69.3741 27.745C69.7041 27.455 69.8691 27.085 69.8691 26.635C69.8691 26.285 69.7641 26 69.5541 25.78C69.3541 25.56 69.0991 25.39 68.7891 25.27C68.4891 25.15 68.0691 25.02 67.5291 24.88C66.8491 24.7 66.2941 24.52 65.8641 24.34C65.4441 24.15 65.0841 23.86 64.7841 23.47C64.4841 23.08 64.3341 22.56 64.3341 21.91C64.3341 21.31 64.4841 20.785 64.7841 20.335C65.0841 19.885 65.5041 19.54 66.0441 19.3C66.5841 19.06 67.2091 18.94 67.9191 18.94C68.9291 18.94 69.7541 19.195 70.3941 19.705C71.0441 20.205 71.4041 20.895 71.4741 21.775H69.5841C69.5541 21.395 69.3741 21.07 69.0441 20.8C68.7141 20.53 68.2791 20.395 67.7391 20.395C67.2491 20.395 66.8491 20.52 66.5391 20.77C66.2291 21.02 66.0741 21.38 66.0741 21.85C66.0741 22.17 66.1691 22.435 66.3591 22.645C66.5591 22.845 66.8091 23.005 67.1091 23.125C67.4091 23.245 67.8191 23.375 68.3391 23.515C69.0291 23.705 69.5891 23.895 70.0191 24.085C70.4591 24.275 70.8291 24.57 71.1291 24.97C71.4391 25.36 71.5941 25.885 71.5941 26.545C71.5941 27.075 71.4491 27.575 71.1591 28.045C70.8791 28.515 70.4641 28.895 69.9141 29.185C69.3741 29.465 68.7341 29.605 67.9941 29.605ZM75.3068 22.63V27.205C75.3068 27.515 75.3768 27.74 75.5168 27.88C75.6668 28.01 75.9168 28.075 76.2668 28.075H77.3168V29.5H75.9668C75.1968 29.5 74.6068 29.32 74.1968 28.96C73.7868 28.6 73.5818 28.015 73.5818 27.205V22.63H72.6068V21.235H73.5818V19.18H75.3068V21.235H77.3168V22.63H75.3068ZM78.0229 25.33C78.0229 24.5 78.1929 23.765 78.5329 23.125C78.8829 22.485 79.3529 21.99 79.9429 21.64C80.5429 21.28 81.2029 21.1 81.9229 21.1C82.5729 21.1 83.1379 21.23 83.6179 21.49C84.1079 21.74 84.4979 22.055 84.7879 22.435V21.235H86.5129V29.5H84.7879V28.27C84.4979 28.66 84.1029 28.985 83.6029 29.245C83.1029 29.505 82.5329 29.635 81.8929 29.635C81.1829 29.635 80.5329 29.455 79.9429 29.095C79.3529 28.725 78.8829 28.215 78.5329 27.565C78.1929 26.905 78.0229 26.16 78.0229 25.33ZM84.7879 25.36C84.7879 24.79 84.6679 24.295 84.4279 23.875C84.1979 23.455 83.8929 23.135 83.5129 22.915C83.1329 22.695 82.7229 22.585 82.2829 22.585C81.8429 22.585 81.4329 22.695 81.0529 22.915C80.6729 23.125 80.3629 23.44 80.1229 23.86C79.8929 24.27 79.7779 24.76 79.7779 25.33C79.7779 25.9 79.8929 26.4 80.1229 26.83C80.3629 27.26 80.6729 27.59 81.0529 27.82C81.4429 28.04 81.8529 28.15 82.2829 28.15C82.7229 28.15 83.1329 28.04 83.5129 27.82C83.8929 27.6 84.1979 27.28 84.4279 26.86C84.6679 26.43 84.7879 25.93 84.7879 25.36ZM90.1689 22.435C90.4189 22.015 90.7489 21.69 91.1589 21.46C91.5789 21.22 92.0739 21.1 92.6439 21.1V22.87H92.2089C91.5389 22.87 91.0289 23.04 90.6789 23.38C90.3389 23.72 90.1689 24.31 90.1689 25.15V29.5H88.4589V21.235H90.1689V22.435ZM95.9107 22.63V27.205C95.9107 27.515 95.9807 27.74 96.1207 27.88C96.2707 28.01 96.5207 28.075 96.8707 28.075H97.9207V29.5H96.5707C95.8007 29.5 95.2107 29.32 94.8007 28.96C94.3907 28.6 94.1857 28.015 94.1857 27.205V22.63H93.2107V21.235H94.1857V19.18H95.9107V21.235H97.9207V22.63H95.9107ZM109.078 27.37H104.713L103.963 29.5H102.178L105.913 19.06H107.893L111.628 29.5H109.828L109.078 27.37ZM108.598 25.975L106.903 21.13L105.193 25.975H108.598ZM120.437 21.235V29.5H118.727V28.525C118.457 28.865 118.102 29.135 117.662 29.335C117.232 29.525 116.772 29.62 116.282 29.62C115.632 29.62 115.047 29.485 114.527 29.215C114.017 28.945 113.612 28.545 113.312 28.015C113.022 27.485 112.877 26.845 112.877 26.095V21.235H114.572V25.84C114.572 26.58 114.757 27.15 115.127 27.55C115.497 27.94 116.002 28.135 116.642 28.135C117.282 28.135 117.787 27.94 118.157 27.55C118.537 27.15 118.727 26.58 118.727 25.84V21.235H120.437ZM124.388 22.63V27.205C124.388 27.515 124.458 27.74 124.598 27.88C124.748 28.01 124.998 28.075 125.348 28.075H126.398V29.5H125.048C124.278 29.5 123.688 29.32 123.278 28.96C122.868 28.6 122.663 28.015 122.663 27.205V22.63H121.688V21.235H122.663V19.18H124.388V21.235H126.398V22.63H124.388ZM131.26 29.635C130.48 29.635 129.775 29.46 129.145 29.11C128.515 28.75 128.02 28.25 127.66 27.61C127.3 26.96 127.12 26.21 127.12 25.36C127.12 24.52 127.305 23.775 127.675 23.125C128.045 22.475 128.55 21.975 129.19 21.625C129.83 21.275 130.545 21.1 131.335 21.1C132.125 21.1 132.84 21.275 133.48 21.625C134.12 21.975 134.625 22.475 134.995 23.125C135.365 23.775 135.55 24.52 135.55 25.36C135.55 26.2 135.36 26.945 134.98 27.595C134.6 28.245 134.08 28.75 133.42 29.11C132.77 29.46 132.05 29.635 131.26 29.635ZM131.26 28.15C131.7 28.15 132.11 28.045 132.49 27.835C132.88 27.625 133.195 27.31 133.435 26.89C133.675 26.47 133.795 25.96 133.795 25.36C133.795 24.76 133.68 24.255 133.45 23.845C133.22 23.425 132.915 23.11 132.535 22.9C132.155 22.69 131.745 22.585 131.305 22.585C130.865 22.585 130.455 22.69 130.075 22.9C129.705 23.11 129.41 23.425 129.19 23.845C128.97 24.255 128.86 24.76 128.86 25.36C128.86 26.25 129.085 26.94 129.535 27.43C129.995 27.91 130.57 28.15 131.26 28.15ZM143.285 23.35V24.79H137.12V23.35H143.285ZM151.699 27.37H147.334L146.584 29.5H144.799L148.534 19.06H150.514L154.249 29.5H152.449L151.699 27.37ZM151.219 25.975L149.524 21.13L147.814 25.975H151.219ZM157.283 22.45C157.573 22.07 157.968 21.75 158.468 21.49C158.968 21.23 159.533 21.1 160.163 21.1C160.883 21.1 161.538 21.28 162.128 21.64C162.728 21.99 163.198 22.485 163.538 23.125C163.878 23.765 164.048 24.5 164.048 25.33C164.048 26.16 163.878 26.905 163.538 27.565C163.198 28.215 162.728 28.725 162.128 29.095C161.538 29.455 160.883 29.635 160.163 29.635C159.533 29.635 158.973 29.51 158.483 29.26C157.993 29 157.593 28.68 157.283 28.3V33.43H155.573V21.235H157.283V22.45ZM162.308 25.33C162.308 24.76 162.188 24.27 161.948 23.86C161.718 23.44 161.408 23.125 161.018 22.915C160.638 22.695 160.228 22.585 159.788 22.585C159.358 22.585 158.948 22.695 158.558 22.915C158.178 23.135 157.868 23.455 157.628 23.875C157.398 24.295 157.283 24.79 157.283 25.36C157.283 25.93 157.398 26.43 157.628 26.86C157.868 27.28 158.178 27.6 158.558 27.82C158.948 28.04 159.358 28.15 159.788 28.15C160.228 28.15 160.638 28.04 161.018 27.82C161.408 27.59 161.718 27.26 161.948 26.83C162.188 26.4 162.308 25.9 162.308 25.33ZM167.149 22.45C167.439 22.07 167.834 21.75 168.334 21.49C168.834 21.23 169.399 21.1 170.029 21.1C170.749 21.1 171.404 21.28 171.994 21.64C172.594 21.99 173.064 22.485 173.404 23.125C173.744 23.765 173.914 24.5 173.914 25.33C173.914 26.16 173.744 26.905 173.404 27.565C173.064 28.215 172.594 28.725 171.994 29.095C171.404 29.455 170.749 29.635 170.029 29.635C169.399 29.635 168.839 29.51 168.349 29.26C167.859 29 167.459 28.68 167.149 28.3V33.43H165.439V21.235H167.149V22.45ZM172.174 25.33C172.174 24.76 172.054 24.27 171.814 23.86C171.584 23.44 171.274 23.125 170.884 22.915C170.504 22.695 170.094 22.585 169.654 22.585C169.224 22.585 168.814 22.695 168.424 22.915C168.044 23.135 167.734 23.455 167.494 23.875C167.264 24.295 167.149 24.79 167.149 25.36C167.149 25.93 167.264 26.43 167.494 26.86C167.734 27.28 168.044 27.6 168.424 27.82C168.814 28.04 169.224 28.15 169.654 28.15C170.094 28.15 170.504 28.04 170.884 27.82C171.274 27.59 171.584 27.26 171.814 26.83C172.054 26.4 172.174 25.9 172.174 25.33ZM177.015 18.4V29.5H175.305V18.4H177.015ZM186.4 21.235L181.33 33.385H179.56L181.24 29.365L177.985 21.235H179.89L182.215 27.535L184.63 21.235H186.4Z" fill="white"/>
<g style="mix-blend-mode:plus-lighter" filter="url(#filter1_f_580_61)">
<path d="M10.5439 7.97995C7.43254 13.8316 2.31735 25.4255 4.51172 26.5923C6.70609 27.7591 13.5117 16.0923 18.4904 12.2052C21.6018 6.35354 36.2056 6.25917 34.0113 5.0924C31.8169 3.92563 13.6553 2.12829 10.5439 7.97995Z" fill="#646BFF"/>
</g>
<g style="mix-blend-mode:plus-lighter" filter="url(#filter2_f_580_61)">
<path d="M111.422 57.5308C160.605 53.2278 254.29 43.8166 254.007 40.5827C253.724 37.3488 153.506 45.4195 110.398 45.8199C61.2146 50.1229 8.2534 37.9079 8.53632 41.1417C8.81925 44.3756 62.2391 61.8337 111.422 57.5308Z" fill="#646BFF"/>
</g>
<g style="mix-blend-mode:plus-lighter" filter="url(#filter3_f_580_61)">
<path d="M3.54392 1.97995C0.432538 7.83162 -4.68265 19.4255 -2.48828 20.5923C-0.293908 21.7591 6.51172 10.0923 11.4904 6.2052C14.6018 0.353535 29.2056 0.259171 27.0113 -0.907598C24.8169 -2.07437 6.65531 -3.87171 3.54392 1.97995Z" fill="#646BFF"/>
</g>
</g>
<rect x="0.5" y="0.5" width="249" height="47" rx="23.5" stroke="url(#paint1_linear_580_61)"/>
</g>
<defs>
<filter id="filter0_n_580_61" x="0" y="0" width="250" height="48" filterUnits="userSpaceOnUse" color-interpolation-filters="sRGB">
<feFlood flood-opacity="0" result="BackgroundImageFix"/>
<feBlend mode="normal" in="SourceGraphic" in2="BackgroundImageFix" result="shape"/>
<feTurbulence type="fractalNoise" baseFrequency="0.3333333432674408 0.3333333432674408" stitchTiles="stitch" numOctaves="3" result="noise" seed="5968" />
<feColorMatrix in="noise" type="luminanceToAlpha" result="alphaNoise" />
<feComponentTransfer in="alphaNoise" result="coloredNoise1">
<feFuncA type="discrete" tableValues="0 0 0 0 0 0 0 0 0 1 1 1 1 1 1 1 1 1 1 1 1 1 1 1 1 1 1 1 1 1 1 1 1 1 1 1 1 1 1 1 0 0 0 0 0 0 0 0 0 0 0 0 0 0 0 0 0 0 0 0 0 0 0 0 0 0 0 0 0 0 0 0 0 0 0 0 0 0 0 0 0 0 0 0 0 0 0 0 0 0 0 0 0 0 0 0 0 0 0 0 "/>
</feComponentTransfer>
<feComposite operator="in" in2="shape" in="coloredNoise1" result="noise1Clipped" />
<feComponentTransfer in="alphaNoise" result="coloredNoise2">
<feFuncA type="discrete" tableValues="0 0 0 0 0 0 0 0 0 0 0 0 0 0 0 0 0 0 0 0 0 0 0 0 0 0 0 0 0 0 0 0 0 0 0 0 0 0 0 0 0 0 0 0 0 0 0 0 0 0 0 0 0 0 0 0 0 0 0 0 1 1 1 1 1 1 1 1 1 1 1 1 1 1 1 1 1 1 1 1 1 1 1 1 1 1 1 1 1 1 1 0 0 0 0 0 0 0 0 0 "/>
</feComponentTransfer>
<feComposite operator="in" in2="shape" in="coloredNoise2" result="noise2Clipped" />
<feFlood flood-color="rgba(0, 0, 0, 0.01)" result="color1Flood" />
<feComposite operator="in" in2="noise1Clipped" in="color1Flood" result="color1" />
<feFlood flood-color="rgba(255, 255, 255, 0.01)" result="color2Flood" />
<feComposite operator="in" in2="noise2Clipped" in="color2Flood" result="color2" />
<feMerge result="effect1_noise_580_61">
<feMergeNode in="shape" />
<feMergeNode in="color1" />
<feMergeNode in="color2" />
</feMerge>
</filter>
<filter id="filter1_f_580_61" x="-6.01953" y="-6.1123" width="50.2544" height="42.7861" filterUnits="userSpaceOnUse" color-interpolation-filters="sRGB">
<feFlood flood-opacity="0" result="BackgroundImageFix"/>
<feBlend mode="normal" in="SourceGraphic" in2="BackgroundImageFix" result="shape"/>
<feGaussianBlur stdDeviation="5" result="effect1_foregroundBlur_580_61"/>
</filter>
<filter id="filter2_f_580_61" x="-1.46484" y="29.8203" width="265.473" height="38.3887" filterUnits="userSpaceOnUse" color-interpolation-filters="sRGB">
<feFlood flood-opacity="0" result="BackgroundImageFix"/>
<feBlend mode="normal" in="SourceGraphic" in2="BackgroundImageFix" result="shape"/>
<feGaussianBlur stdDeviation="5" result="effect1_foregroundBlur_580_61"/>
</filter>
<filter id="filter3_f_580_61" x="-13.0195" y="-12.1123" width="50.2544" height="42.7861" filterUnits="userSpaceOnUse" color-interpolation-filters="sRGB">
<feFlood flood-opacity="0" result="BackgroundImageFix"/>
<feBlend mode="normal" in="SourceGraphic" in2="BackgroundImageFix" result="shape"/>
<feGaussianBlur stdDeviation="5" result="effect1_foregroundBlur_580_61"/>
</filter>
<linearGradient id="paint0_linear_580_61" x1="221.751" y1="53.5" x2="23.7343" y2="13.8847" gradientUnits="userSpaceOnUse">
<stop stop-color="#1565C0"/>
<stop offset="0.5" stop-color="#1565C0"/>
<stop offset="1" stop-color="#64B5F6"/>
</linearGradient>
<linearGradient id="paint1_linear_580_61" x1="220.638" y1="-1.39053e-05" x2="173.454" y2="70.7506" gradientUnits="userSpaceOnUse">
<stop stop-color="#3204A8"/>
<stop offset="1" stop-color="#A0E5F8"/>
</linearGradient>
<clipPath id="clip0_580_61">
<rect width="250" height="48" rx="24" fill="white"/>
</clipPath>
</defs>
</svg>
